<svg width="267" height="394" viewBox="0 0 267 394" fill="none" xmlns="http://www.w3.org/2000/svg">
<path d="M0.333333 391C0.333333 392.473 1.52724 393.667 3 393.667C4.47276 393.667 5.66667 392.473 5.66667 391C5.66667 389.527 4.47276 388.333 3 388.333C1.52724 388.333 0.333333 389.527 0.333333 391ZM264 0L261.113 5H266.887L264 0ZM219.353 369.481L219.65 369.884L219.353 369.481ZM242.481 346.353L242.884 346.65L242.481 346.353ZM3 391.5H4.03167V390.5H3V391.5ZM6.095 391.5H8.15833V390.5H6.095V391.5ZM10.2217 391.5H12.285V390.5H10.2217V391.5ZM14.3483 391.5H16.4117V390.5H14.3483V391.5ZM18.475 391.5H20.5383V390.5H18.475V391.5ZM22.6017 391.5H24.665V390.5H22.6017V391.5ZM26.7283 391.5H28.7917V390.5H26.7283V391.5ZM30.855 391.5H32.9183V390.5H30.855V391.5ZM34.9817 391.5H37.045V390.5H34.9817V391.5ZM39.1083 391.5H41.1717V390.5H39.1083V391.5ZM43.235 391.5H45.2983V390.5H43.235V391.5ZM47.3617 391.5H49.425V390.5H47.3617V391.5ZM51.4884 391.5H53.5517V390.5H51.4884V391.5ZM55.615 391.5H57.6784V390.5H55.615V391.5ZM59.7417 391.5H61.805V390.5H59.7417V391.5ZM63.8684 391.5H64.9V390.5H63.8684V391.5ZM64.9 391.5C65.235 391.5 65.5693 391.5 65.903 391.5L65.9029 390.5C65.5693 390.5 65.235 390.5 64.9 390.5V391.5ZM67.8968 391.5C68.5588 391.5 69.218 391.5 69.8747 391.5L69.8746 390.5C69.218 390.5 68.5587 390.5 67.8968 390.5L67.8968 391.5ZM71.8367 391.5C72.5007 391.499 73.1619 391.499 73.8204 391.499L73.82 390.499C73.1616 390.499 72.5004 390.499 71.8365 390.5L71.8367 391.5ZM75.8122 391.498C76.4734 391.498 77.1318 391.497 77.7874 391.497L77.7867 390.497C77.1311 390.497 76.4728 390.498 75.8117 390.498L75.8122 391.498ZM79.7461 391.495C80.4137 391.494 81.0783 391.494 81.7401 391.493L81.7388 390.493C81.0771 390.494 80.4126 390.494 79.7451 390.495L79.7461 391.495ZM83.7277 391.49C84.3873 391.489 85.0441 391.487 85.698 391.486L85.6958 390.486C85.0421 390.487 84.3855 390.489 83.726 390.49L83.7277 391.49ZM87.6618 391.481C88.3311 391.48 88.9974 391.478 89.6607 391.476L89.6576 390.476C88.9945 390.478 88.3284 390.48 87.6592 390.481L87.6618 391.481ZM91.6414 391.469C92.2987 391.467 92.953 391.464 93.6043 391.461L93.5999 390.461C92.9489 390.464 92.2948 390.467 91.6378 390.469L91.6414 391.469ZM95.5893 391.452C96.2558 391.449 96.9191 391.445 97.5793 391.441L97.5735 390.441C96.9136 390.445 96.2505 390.449 95.5842 390.452L95.5893 391.452ZM99.5506 391.429C100.209 391.425 100.864 391.42 101.516 391.415L101.509 390.415C100.857 390.42 100.202 390.425 99.544 390.429L99.5506 391.429ZM103.514 391.399C104.177 391.393 104.836 391.387 105.492 391.381L105.483 390.381C104.827 390.387 104.168 390.393 103.505 390.399L103.514 391.399ZM107.451 391.361C108.12 391.353 108.786 391.346 109.448 391.338L109.436 390.338C108.774 390.346 108.109 390.354 107.441 390.361L107.451 391.361ZM111.432 391.312C112.089 391.304 112.744 391.294 113.395 391.285L113.38 390.285C112.729 390.294 112.075 390.304 111.418 390.313L111.432 391.312ZM115.382 391.253C116.048 391.242 116.71 391.231 117.369 391.219L117.351 390.219C116.693 390.231 116.031 390.242 115.365 390.253L115.382 391.253ZM119.336 391.181C120 391.168 120.66 391.154 121.318 391.14L121.296 390.14C120.639 390.154 119.979 390.168 119.316 390.181L119.336 391.181ZM123.306 391.094C123.966 391.078 124.621 391.061 125.273 391.044L125.247 390.045C124.596 390.062 123.941 390.078 123.282 390.094L123.306 391.094ZM127.255 390.99C127.922 390.971 128.584 390.951 129.243 390.93L129.212 389.931C128.554 389.951 127.892 389.971 127.226 389.99L127.255 390.99ZM131.208 390.867C131.874 390.844 132.536 390.821 133.194 390.796L133.157 389.797C132.5 389.821 131.839 389.845 131.175 389.867L131.208 390.867ZM135.179 390.72C135.836 390.694 136.49 390.667 137.14 390.639L137.097 389.64C136.448 389.668 135.795 389.695 135.139 389.721L135.179 390.72ZM139.132 390.55C139.796 390.519 140.456 390.487 141.111 390.454L141.061 389.455C140.407 389.488 139.748 389.52 139.086 389.551L139.132 390.55ZM143.073 390.351C143.743 390.315 144.408 390.278 145.069 390.239L145.01 389.241C144.351 389.279 143.687 389.317 143.019 389.353L143.073 390.351ZM147.038 390.119C147.701 390.078 148.36 390.035 149.015 389.99L148.947 388.993C148.294 389.037 147.637 389.08 146.975 389.121L147.038 390.119ZM150.998 389.851C151.655 389.803 152.307 389.754 152.955 389.704L152.877 388.707C152.231 388.757 151.581 388.806 150.926 388.854L150.998 389.851ZM154.948 389.542C155.609 389.487 156.265 389.43 156.916 389.371L156.827 388.375C156.177 388.434 155.523 388.491 154.864 388.546L154.948 389.542ZM158.889 389.188C159.553 389.124 160.212 389.058 160.867 388.99L160.764 387.995C160.112 388.063 159.455 388.128 158.793 388.192L158.889 389.188ZM162.824 388.781C163.49 388.707 164.152 388.632 164.808 388.554L164.69 387.561C164.037 387.638 163.378 387.714 162.714 387.787L162.824 388.781ZM166.763 388.314C167.427 388.23 168.086 388.144 168.74 388.055L168.606 387.064C167.955 387.153 167.299 387.239 166.638 387.322L166.763 388.314ZM170.699 387.781C171.359 387.685 172.013 387.587 172.663 387.487L172.51 386.499C171.864 386.599 171.212 386.696 170.555 386.791L170.699 387.781ZM174.622 387.173C175.278 387.065 175.929 386.954 176.575 386.84L176.401 385.855C175.759 385.968 175.111 386.079 174.459 386.187L174.622 387.173ZM178.53 386.483C179.184 386.36 179.831 386.233 180.474 386.104L180.276 385.124C179.638 385.252 178.994 385.378 178.345 385.5L178.53 386.483ZM182.422 385.699C183.072 385.559 183.716 385.416 184.355 385.27L184.131 384.295C183.497 384.441 182.857 384.583 182.212 384.721L182.422 385.699ZM186.292 384.812C186.938 384.654 187.578 384.492 188.213 384.327L187.961 383.359C187.331 383.523 186.696 383.683 186.055 383.84L186.292 384.812ZM190.135 383.81C190.776 383.631 191.412 383.449 192.042 383.263L191.759 382.304C191.134 382.489 190.503 382.669 189.867 382.846L190.135 383.81ZM193.944 382.682C194.58 382.481 195.21 382.276 195.834 382.066L195.516 381.118C194.897 381.326 194.273 381.529 193.643 381.728L193.944 382.682ZM197.711 381.416C198.339 381.192 198.962 380.962 199.579 380.728L199.224 379.793C198.613 380.025 197.996 380.252 197.374 380.475L197.711 381.416ZM201.426 380.003C202.045 379.753 202.658 379.497 203.266 379.236L202.872 378.317C202.27 378.576 201.663 378.829 201.051 379.076L201.426 380.003ZM205.081 378.432C205.688 378.155 206.289 377.872 206.885 377.583L206.449 376.683C205.86 376.969 205.265 377.248 204.666 377.522L205.081 378.432ZM208.664 376.695C209.256 376.391 209.842 376.08 210.423 375.763L209.945 374.885C209.37 375.198 208.791 375.505 208.207 375.806L208.664 376.695ZM212.159 374.789C212.734 374.457 213.305 374.118 213.87 373.773L213.349 372.92C212.79 373.261 212.227 373.595 211.659 373.923L212.159 374.789ZM215.556 372.714C216.114 372.354 216.666 371.987 217.215 371.613L216.651 370.787C216.11 371.156 215.564 371.518 215.014 371.874L215.556 372.714ZM218.845 370.471C219.115 370.277 219.383 370.081 219.65 369.884L219.056 369.079C218.792 369.274 218.527 369.467 218.261 369.659L218.845 370.471ZM219.65 369.884C219.927 369.679 220.202 369.474 220.477 369.267L219.875 368.469C219.603 368.673 219.33 368.877 219.056 369.079L219.65 369.884ZM222.111 368.012C222.652 367.588 223.19 367.16 223.722 366.727L223.091 365.951C222.563 366.38 222.031 366.805 221.495 367.225L222.111 368.012ZM225.309 365.411C225.834 364.968 226.355 364.519 226.871 364.066L226.212 363.315C225.7 363.764 225.184 364.208 224.664 364.647L225.309 365.411ZM228.408 362.693C228.916 362.23 229.42 361.763 229.919 361.291L229.232 360.564C228.737 361.032 228.238 361.495 227.735 361.953L228.408 362.693ZM231.403 359.861C231.894 359.379 232.379 358.894 232.861 358.403L232.147 357.703C231.67 358.189 231.189 358.67 230.703 359.147L231.403 359.861ZM234.291 356.919C234.763 356.42 235.23 355.916 235.693 355.408L234.953 354.735C234.495 355.238 234.032 355.737 233.564 356.232L234.291 356.919ZM237.066 353.871C237.519 353.355 237.968 352.834 238.411 352.309L237.647 351.664C237.208 352.184 236.764 352.7 236.315 353.212L237.066 353.871ZM239.727 350.722C240.16 350.19 240.588 349.652 241.012 349.111L240.225 348.495C239.805 349.031 239.38 349.563 238.951 350.091L239.727 350.722ZM242.267 347.476C242.474 347.202 242.679 346.927 242.884 346.65L242.079 346.056C241.877 346.33 241.673 346.603 241.469 346.875L242.267 347.476ZM242.884 346.65C243.081 346.383 243.277 346.115 243.471 345.845L242.659 345.261C242.467 345.527 242.274 345.792 242.079 346.056L242.884 346.65ZM244.613 344.215C244.987 343.666 245.354 343.114 245.714 342.556L244.874 342.014C244.518 342.564 244.156 343.11 243.787 343.651L244.613 344.215ZM246.773 340.87C247.119 340.304 247.457 339.734 247.789 339.159L246.923 338.659C246.595 339.227 246.261 339.79 245.92 340.348L246.773 340.87ZM248.763 337.423C249.08 336.842 249.391 336.255 249.695 335.664L248.806 335.207C248.505 335.791 248.198 336.37 247.885 336.944L248.763 337.423ZM250.583 333.885C250.872 333.289 251.155 332.688 251.432 332.081L250.522 331.666C250.248 332.265 249.969 332.86 249.683 333.449L250.583 333.885ZM252.236 330.266C252.497 329.658 252.753 329.045 253.004 328.425L252.076 328.051C251.829 328.663 251.576 329.27 251.317 329.871L252.236 330.266ZM253.728 326.579C253.962 325.962 254.192 325.339 254.416 324.711L253.475 324.374C253.252 324.996 253.025 325.613 252.793 326.224L253.728 326.579ZM255.067 322.834C255.276 322.21 255.481 321.58 255.682 320.944L254.728 320.643C254.529 321.273 254.326 321.897 254.119 322.516L255.067 322.834ZM256.263 319.042C256.449 318.412 256.631 317.776 256.81 317.135L255.846 316.867C255.669 317.503 255.489 318.134 255.304 318.759L256.263 319.042ZM257.327 315.213C257.492 314.578 257.654 313.938 257.812 313.292L256.84 313.055C256.683 313.696 256.523 314.331 256.359 314.961L257.327 315.213ZM258.27 311.355C258.416 310.716 258.559 310.072 258.699 309.422L257.721 309.212C257.583 309.857 257.441 310.497 257.295 311.131L258.27 311.355ZM259.104 307.473C259.233 306.831 259.36 306.183 259.483 305.53L258.5 305.345C258.378 305.994 258.252 306.638 258.124 307.276L259.104 307.473ZM259.84 303.575C259.954 302.929 260.065 302.278 260.173 301.622L259.187 301.459C259.079 302.111 258.968 302.759 258.855 303.401L259.84 303.575ZM260.487 299.663C260.587 299.013 260.685 298.359 260.781 297.699L259.791 297.555C259.696 298.212 259.599 298.864 259.499 299.51L260.487 299.663ZM261.055 295.74C261.144 295.086 261.23 294.427 261.314 293.763L260.322 293.637C260.239 294.299 260.153 294.955 260.064 295.606L261.055 295.74ZM261.554 291.808C261.632 291.152 261.707 290.49 261.781 289.824L260.787 289.714C260.714 290.378 260.638 291.037 260.561 291.69L261.554 291.808ZM261.99 287.867C262.058 287.212 262.124 286.553 262.188 285.889L261.192 285.793C261.128 286.455 261.063 287.112 260.995 287.764L261.99 287.867ZM262.371 283.916C262.43 283.265 262.487 282.609 262.542 281.948L261.546 281.864C261.491 282.523 261.434 283.177 261.375 283.827L262.371 283.916ZM262.704 279.955C262.754 279.307 262.803 278.655 262.851 277.998L261.854 277.926C261.806 278.581 261.757 279.231 261.707 279.877L262.704 279.955ZM262.99 276.015C263.035 275.36 263.078 274.701 263.119 274.038L262.121 273.975C262.08 274.637 262.037 275.294 261.993 275.947L262.99 276.015ZM263.239 272.068C263.278 271.408 263.315 270.743 263.351 270.073L262.353 270.019C262.317 270.687 262.279 271.351 262.241 272.01L263.239 272.068ZM263.454 268.111C263.487 267.456 263.519 266.796 263.55 266.132L262.551 266.086C262.52 266.748 262.488 267.407 262.455 268.061L263.454 268.111ZM263.639 264.14C263.667 263.49 263.694 262.836 263.72 262.179L262.721 262.139C262.695 262.795 262.668 263.448 262.64 264.097L263.639 264.14ZM263.796 260.194C263.821 259.536 263.844 258.874 263.867 258.208L262.867 258.175C262.845 258.839 262.821 259.5 262.797 260.157L263.796 260.194ZM263.93 256.243C263.951 255.584 263.971 254.922 263.99 254.255L262.99 254.226C262.971 254.892 262.951 255.554 262.931 256.212L263.93 256.243ZM264.044 252.273C264.061 251.621 264.078 250.966 264.094 250.306L263.094 250.282C263.078 250.941 263.062 251.596 263.045 252.247L264.044 252.273ZM264.14 248.318C264.154 247.66 264.168 247 264.181 246.336L263.181 246.315C263.168 246.979 263.154 247.639 263.14 248.296L264.14 248.318ZM264.219 244.369C264.231 243.71 264.242 243.048 264.253 242.382L263.253 242.365C263.242 243.031 263.231 243.693 263.219 244.351L264.219 244.369ZM264.285 240.395C264.294 239.744 264.304 239.089 264.312 238.431L263.313 238.418C263.304 239.075 263.294 239.729 263.285 240.38L264.285 240.395ZM264.338 236.448C264.346 235.786 264.353 235.12 264.361 234.451L263.361 234.44C263.354 235.109 263.346 235.774 263.338 236.436L264.338 236.448ZM264.381 232.492C264.387 231.836 264.393 231.177 264.399 230.514L263.399 230.505C263.393 231.168 263.387 231.827 263.381 232.483L264.381 232.492ZM264.415 228.516C264.42 227.864 264.425 227.209 264.429 226.551L263.429 226.544C263.425 227.202 263.42 227.857 263.415 228.508L264.415 228.516ZM264.441 224.579C264.445 223.919 264.449 223.256 264.452 222.589L263.452 222.584C263.449 223.25 263.445 223.913 263.441 224.573L264.441 224.579ZM264.461 220.604C264.464 219.953 264.467 219.299 264.469 218.641L263.469 218.638C263.467 219.295 263.464 219.949 263.461 220.6L264.461 220.604ZM264.476 216.661C264.478 215.997 264.48 215.331 264.481 214.662L263.481 214.659C263.48 215.328 263.478 215.994 263.476 216.657L264.476 216.661ZM264.486 212.698C264.487 212.044 264.489 211.387 264.49 210.728L263.49 210.726C263.489 211.385 263.487 212.042 263.486 212.696L264.486 212.698ZM264.493 208.74C264.494 208.078 264.494 207.414 264.495 206.746L263.495 206.745C263.494 207.412 263.494 208.077 263.493 208.739L264.493 208.74ZM264.497 204.787C264.497 204.132 264.498 203.473 264.498 202.812L263.498 202.812C263.498 203.473 263.497 204.131 263.497 204.787L264.497 204.787ZM264.499 200.82C264.499 200.162 264.499 199.501 264.5 198.837L263.5 198.836C263.499 199.5 263.499 200.161 263.499 200.82L264.499 200.82ZM264.5 196.875C264.5 196.218 264.5 195.559 264.5 194.897L263.5 194.897C263.5 195.559 263.5 196.218 263.5 196.875L264.5 196.875ZM264.5 192.903C264.5 192.569 264.5 192.235 264.5 191.9H263.5C263.5 192.235 263.5 192.569 263.5 192.903L264.5 192.903ZM264.5 191.9V190.901H263.5V191.9H264.5ZM264.5 188.902V186.903H263.5V188.902H264.5ZM264.5 184.904V182.905H263.5V184.904H264.5ZM264.5 180.906V178.907H263.5V180.906H264.5ZM264.5 176.908V174.909H263.5V176.908H264.5ZM264.5 172.91V170.911H263.5V172.91H264.5ZM264.5 168.912V166.913H263.5V168.912H264.5ZM264.5 164.914V162.915H263.5V164.914H264.5ZM264.5 160.916V158.917H263.5V160.916H264.5ZM264.5 156.918V154.919H263.5V156.918H264.5ZM264.5 152.92V150.921H263.5V152.92H264.5ZM264.5 148.922V146.923H263.5V148.922H264.5ZM264.5 144.924V142.926H263.5V144.924H264.5ZM264.5 140.927V138.928H263.5V140.927H264.5ZM264.5 136.929V134.93H263.5V136.929H264.5ZM264.5 132.931V130.932H263.5V132.931H264.5ZM264.5 128.933V126.934H263.5V128.933H264.5ZM264.5 124.935V122.936H263.5V124.935H264.5ZM264.5 120.937V118.938H263.5V120.937H264.5ZM264.5 116.939V114.94H263.5V116.939H264.5ZM264.5 112.941V110.942H263.5V112.941H264.5ZM264.5 108.943V106.944H263.5V108.943H264.5ZM264.5 104.945V102.946H263.5V104.945H264.5ZM264.5 100.947V98.9485H263.5V100.947H264.5ZM264.5 96.9495V94.9506H263.5V96.9495H264.5ZM264.5 92.9516V90.9527H263.5V92.9516H264.5ZM264.5 88.9537V86.9548H263.5V88.9537H264.5ZM264.5 84.9558V82.9569H263.5V84.9558H264.5ZM264.5 80.9579V78.9589H263.5V80.9579H264.5ZM264.5 76.96V74.961H263.5V76.96H264.5ZM264.5 72.9621V70.9631H263.5V72.9621H264.5ZM264.5 68.9642V66.9652H263.5V68.9642H264.5ZM264.5 64.9663V62.9673H263.5V64.9663H264.5ZM264.5 60.9683V58.9694H263.5V60.9683H264.5ZM264.5 56.9704V54.9715H263.5V56.9704H264.5ZM264.5 52.9725V50.9735H263.5V52.9725H264.5ZM264.5 48.9746V46.9756H263.5V48.9746H264.5ZM264.5 44.9766V42.9777H263.5V44.9766H264.5ZM264.5 40.9787V38.9797H263.5V40.9787H264.5ZM264.5 36.9808V34.9818H263.5V36.9808H264.5ZM264.5 32.9829V30.9839H263.5V32.9829H264.5ZM264.5 28.9849V26.986H263.5V28.9849H264.5ZM264.5 24.987V22.988H263.5V24.987H264.5ZM264.5 20.9891V18.9901H263.5V20.9891H264.5ZM264.5 16.9912V14.9922H263.5V16.9912H264.5ZM264.5 12.9932V10.9943H263.5V12.9932H264.5ZM264.5 8.99531V6.99635H263.5V8.99531H264.5ZM264.5 4.99739V2.99843H263.5V4.99739H264.5Z" fill="#A3A3A3"/>
</svg>
